<?xml version="1.0" standalone="no"?>
<!DOCTYPE svg PUBLIC "-//W3C//DTD SVG 20010904//EN"
 "http://www.w3.org/TR/2001/REC-SVG-20010904/DTD/svg10.dtd">
<svg version="1.0" xmlns="http://www.w3.org/2000/svg"
 width="2939.000000pt" height="2939.000000pt" viewBox="0 0 2939.000000 2939.000000"
 preserveAspectRatio="xMidYMid meet">
<metadata>
Created by potrace 1.14, written by Peter Selinger 2001-2017
</metadata>
<g transform="translate(0.000000,2939.000000) scale(0.100000,-0.100000)"
fill="#000000" stroke="none">
<path d="M36 24543 c19 -60 1480 -4538 3248 -9953 l3213 -9845 1982 -3 1981
-2 0 524 0 525 1070 1534 1070 1535 0 395 0 395 -62 6 c-35 4 -1089 74 -2344
156 l-2281 149 -374 -174 c-205 -95 -375 -172 -377 -171 -1 2 11 1200 27 2662
l30 2659 -1477 4855 -1477 4855 -2132 3 -2131 2 34 -107z"/>
<path d="M11107 18889 c-956 -3168 -1737 -5764 -1735 -5768 2 -5 784 374 1738
842 l1736 851 28 366 c61 806 96 1179 157 1670 85 695 213 1472 353 2140 47
227 1243 5626 1251 5648 3 9 -179 12 -893 12 l-897 0 -1738 -5761z"/>
<path d="M14754 24633 c19 -63 1240 -5590 1291 -5848 228 -1139 354 -2096 460
-3490 21 -264 38 -481 39 -481 13 -13 3472 -1701 3474 -1695 1 4 -780 2599
-1736 5766 l-1738 5760 -898 3 c-852 2 -897 1 -892 -15z"/>
<path d="M23646 19790 l-1478 -4860 30 -2658 c17 -1461 29 -2658 28 -2659 -1
-2 -171 76 -377 172 l-374 174 -2280 -149 c-1254 -82 -2308 -152 -2342 -156
l-63 -6 0 -396 0 -397 1070 -1535 1070 -1534 0 -523 0 -523 1979 0 1979 0 56
168 c30 92 1466 4492 3191 9777 1725 5286 3162 9690 3195 9788 l58 177 -2131
0 -2132 0 -1479 -4860z"/>
</g>
</svg>
